<svg xmlns="http://www.w3.org/2000/svg" viewBox="0 0 800 520" width="800" height="520"><defs><linearGradient id="g" x1="0" y1="0" x2="0" y2="1"><stop offset="0" stop-color="#fff" stop-opacity=".4"/><stop offset="1" stop-color="#000" stop-opacity=".25"/></linearGradient></defs><rect x="0" y="0" width="800" height="520" fill="#6E8F3A"/><path d="M560 0h150v520H560z" fill="#D8CDB8"/><path d="M0 0h800v70H0z" fill="#B25C3A"/><path d="M0 70h800v10H0z" fill="#000" opacity=".35"/><rect x="90" y="90" width="130" height="40" rx="4" fill="#7A5A3A"/><path d="M0 474h800v46H0z" fill="#D8CDB8"/><path d="M0 468h560v6H0z" fill="#000" opacity=".25"/><rect x="0.0" y="80" width="62.2" height="394" fill="#5E7F30"/><rect x="62.2" y="80" width="62.2" height="394" fill="#89A84C"/><rect x="124.4" y="80" width="62.2" height="394" fill="#5E7F30"/><rect x="186.7" y="80" width="62.2" height="394" fill="#89A84C"/><rect x="248.9" y="80" width="62.2" height="394" fill="#5E7F30"/><rect x="311.1" y="80" width="62.2" height="394" fill="#89A84C"/><rect x="373.3" y="80" width="62.2" height="394" fill="#5E7F30"/><rect x="435.6" y="80" width="62.2" height="394" fill="#89A84C"/><rect x="497.8" y="80" width="62.2" height="394" fill="#5E7F30"/><rect x="0" y="80" width="560" height="394" fill="url(#g)" opacity=".25"/><path d="M558 80v394" stroke="#F4EEE2" stroke-width="3"/><path d="M0 473h560" stroke="#F4EEE2" stroke-width="3"/></svg>